<?xml version="1.0" encoding="utf-8"?>
<!-- Generator: Adobe Illustrator 19.1.0, SVG Export Plug-In . SVG Version: 6.00 Build 0)  -->
<svg version="1.1" id="Layer_1" xmlns="http://www.w3.org/2000/svg" xmlns:xlink="http://www.w3.org/1999/xlink" x="0px" y="0px"
	 viewBox="0 0 450 450" style="enable-background:new 0 0 450 450;" xml:space="preserve">
<style type="text/css">
	.st0{fill:#ECECEC;}
</style>
<g>
	<g>
		<path class="st0" d="M313,429.1c-20.4,0-40.8,0-61.2,0c-0.4-0.1-0.8-0.2-1.2-0.2c-4.1-0.3-8.1-0.5-12.2-1
			c-8.8-1-17.3-3.3-25.3-7.5c-4.7-2.5-8.9-5.7-12.4-9.7c-4.4-5-7.2-10.7-8.8-17.1c-1.9-7.6-1.9-15.4-0.6-23.1
			c1.7-10,4.7-19.7,8.3-29.2c3.2-8.4,6.6-16.6,10-24.9c4.9-12,9.8-24.1,14.7-36.1c4.7-11.6,9.4-23.1,14.1-34.7
			c5.8-14.2,11.6-28.4,17.3-42.7c3.9-9.7,7.8-19.3,11.6-29.1c4-10.3,7.5-20.8,10-31.5c1.2-5.4,2.3-10.9,1.7-16.5
			c-0.4-3.7-1.5-7.2-3.3-10.4c-2.5-4.5-5.9-8.2-9.9-11.4c-4.4-3.5-9.2-6.1-14.5-7.7c-5.7-1.7-11.5-1.8-17.3-1.3
			c-6.5,0.5-12.8,2.1-18.8,4.6c-9.5,3.9-17.7,9.8-25.1,17c-3.2,3.1-6.1,6.4-8.9,9.9c-6.3,7.7-11.2,16.3-14.3,25.7
			c-2.7,8.1-4,16.4-3.9,25c0.1,5.3,0.5,10.5,1.9,15.7c1.8,6.8,5.5,12.5,10.9,17c6,5,12.9,8.6,20,11.7c3.6,1.6,7.3,3.1,10.7,5
			c5.1,2.8,8.9,7,11.1,12.5c1.9,4.8,2.2,9.9,1.6,15c-0.9,8.3-4.3,15.4-10.3,21.4c-6.3,6.3-13.8,10.2-22.4,11.9c-5,1-10,1.6-15.1,1
			c-4-0.5-8-0.6-11.9-1.4c-14.8-2.8-27.4-10-38.3-20.2c-3.3-3.1-6.4-6.5-9.3-10c-5-5.9-9.3-12.3-12.8-19.2
			c-4.4-8.5-7.7-17.5-9.8-26.9c-1.7-7.7-2.7-15.4-2.9-23.3c0-0.5-0.1-1-0.2-1.5c0-2.4,0-4.8,0-7.2c0.1-0.4,0.2-0.8,0.2-1.2
			c0.4-5.2,0.6-10.4,1.2-15.5c1-8.9,3-17.6,5.7-26.1c3-9.4,7-18.4,11.9-27.1c7.2-12.8,16.2-24.3,26.3-34.9c2.4-2.5,4.9-4.9,7.5-7.3
			c2.4-2.3,4.9-4.5,7.4-6.6c5.6-4.7,11.5-9,17.7-13c6.8-4.3,13.9-8.2,21.4-11.4c8.3-3.6,16.9-6.4,25.7-8.4c9.5-2.1,19.2-3.5,29-3.7
			c0.5,0,1-0.2,1.5-0.2c2.9,0,5.8,0,8.6,0c0.4,0.1,0.8,0.2,1.2,0.2c5,0.4,10,0.6,14.9,1.2c11.7,1.5,23,4.7,33.8,9.7
			c11,5.1,20.8,11.9,29.6,20.2c3.9,3.7,7.5,7.7,10.7,12c6.2,8.2,10.8,17.1,13.8,27c2.6,8.5,3.8,17.2,4,26.1c0.1,2.5-0.1,5-0.2,7.5
			c-0.3,4.1-0.5,8.1-1,12.2c-2.1,15-6.1,29.5-11.6,43.6c-3.1,8-6.4,16-9.6,23.9c-4.7,11.6-9.4,23.1-14.1,34.7
			c-5.8,14.2-11.6,28.4-17.4,42.7c-4.5,11.1-9.1,22.3-13.6,33.4c-5.3,13.1-10.7,26.3-16,39.5C274,359,274,359,276,359
			c14.2,0,28.3-0.1,42.5,0c5.4,0,10.8,0.2,16.1,0.7c5.9,0.6,11.7,2,16.9,5c5.6,3.2,9.4,7.8,11.1,14.2c1.4,5.4,1.3,10.9,0.3,16.4
			c-2,11.9-8.6,20.6-19.1,26.3c-9.1,5-19,6.8-29.2,7.2C314.1,428.9,313.6,429,313,429.1z"/>
	</g>
</g>
</svg>
